<?xml version="1.0" encoding="UTF-8"?>
<svg id="Layer_1" data-name="Layer 1" xmlns="http://www.w3.org/2000/svg" viewBox="0 0 709 516.44">
  <defs>
    <style>
      .cls-1 {
        fill: #403e56;
      }

      .cls-2 {
        fill: #cacaca;
      }

      .cls-3 {
        fill: #302e41;
      }

      .cls-4 {
        fill: #e12355;
      }

      .cls-5 {
        fill: none;
        opacity: .38;
      }

      .cls-6 {
        fill: #f8b4b6;
      }

      .cls-7 {
        fill: #a0626b;
      }

      .cls-8 {
        fill: #e6e6e5;
      }

      .cls-9 {
        fill: #f9b7b8;
      }

      .cls-10 {
        fill: #ccc;
      }

      .cls-11 {
        fill: #f3f3f3;
      }

      .cls-12 {
        fill: #6466af;
      }
    </style>
  </defs>
  <path class="cls-11" d="m529.11,336.42c1.13.05,2.08-.82,2.13-1.94.03-.6-.21-1.18-.65-1.59l-.14-.56.06-.13c1.18-2.79,4.39-4.09,7.18-2.91,1.32.56,2.37,1.62,2.92,2.95,1.65,3.98,3.76,7.97,4.28,12.18.23,1.86.13,3.75-.28,5.57,3.88-8.47,5.9-17.67,5.91-26.99,0-2.34-.13-4.67-.39-7-.21-1.9-.51-3.8-.89-5.67-2.08-10.19-6.55-19.73-13.03-27.86-3.14-1.71-5.68-4.35-7.28-7.55-.58-1.15-.99-2.38-1.21-3.65.35.05.71.08,1.07.1.11,0,.23.01.34.02h.04c1.12.05,2.06-.81,2.11-1.93.02-.49-.14-.98-.45-1.36-.15-.19-.31-.38-.46-.56-.23-.29-.47-.57-.7-.87-.03-.03-.05-.06-.08-.09-.27-.33-.53-.66-.8-.99.49-.76,1.14-1.39,1.92-1.85,2.68-1.57,6.37-.48,8.3,1.94,1.83,2.56,2.43,5.8,1.63,8.84-.66,2.57-1.76,5.02-3.24,7.22.15.19.3.37.44.55,2.65,3.41,4.97,7.08,6.9,10.94-.47-4.33.09-8.71,1.64-12.77,1.57-3.79,4.52-6.98,7.11-10.26,1.92-2.46,5.46-2.9,7.92-.98,1.18.92,1.95,2.27,2.13,3.75l.02.14c-.39.22-.76.45-1.13.69-1.27.85-1.61,2.57-.76,3.84.43.64,1.11,1.08,1.88,1.2h.06c-.14,1.4-.38,2.77-.73,4.13-2.03,7.63-7.14,14.07-14.11,17.77-.23.12-.45.23-.67.34,1.95,5.52,3.17,11.27,3.63,17.11.26,3.44.25,6.9-.05,10.34l.02-.12c.74-3.83,2.78-7.28,5.78-9.77,4.45-3.65,10.73-5,15.52-7.93,1.48-.95,3.44-.52,4.39.96.41.63.57,1.39.48,2.13l-.02.13c-.71.29-1.41.63-2.08,1-.39.22-.76.45-1.13.69-1.27.85-1.61,2.57-.76,3.84.43.64,1.11,1.08,1.88,1.2h.06s.08.02.12.03c-1.22,2.92-2.94,5.6-5.07,7.94-5.32,5.71-12.77,8.98-20.58,9.03h0c-1.05,4.56-2.57,8.99-4.53,13.24h-16.2c-.06-.18-.11-.37-.16-.55,1.5.09,3,0,4.48-.27-1.2-1.47-2.4-2.96-3.61-4.44-.03-.03-.05-.06-.08-.09-.61-.75-1.23-1.5-1.83-2.26h0c-.03-2.31.23-4.62.79-6.87h0Z"/>
  <path class="cls-3" d="m480.11,187.8c0,8.92,4.46,17.99,13.38,17.99s21.22-6.46,18.45-20.3c-1.75-8.74-6.77-13.84-15.68-13.84-8.92,0-16.15,7.23-16.15,16.15h0Z"/>
  <path class="cls-7" d="m517.52,315.21c-1.84-2.04-1.67-5.18.36-7.01.22-.2.45-.37.7-.53l-3.9-17.2,8.58,3.23,2.39,15.84c1.3,2.43.38,5.46-2.05,6.75-2.03,1.09-4.55.64-6.08-1.08h0Z"/>
  <path class="cls-8" d="m499.3,254.23l5.99.61s-1.57,8.87.88,10.87,1.46,1.99,1.45,3.47c.15,2.15,1.21,4.13,2.91,5.46,1.96,1.5,6.04,28.21,6.04,28.21l8.89.09c-.27-2.3-.24-4.62.07-6.91.53-3.45,3.19-12.14,2.22-13.63s-.46-4.23-.43-7.19-4.21.31-4.16-4.63-5.39-35.91-4.85-40.35-4.86-8.44-4.86-8.44l-4.94-.05-9.2,32.5Z"/>
  <path class="cls-7" d="m435.73,212.57c-.56,2.54,1.03,5.05,3.57,5.61.27.06.55.1.82.11l4.8,16.01,5.57-6.66-5.42-14.18c-.06-2.61-2.23-4.68-4.84-4.62-2.18.05-4.05,1.59-4.51,3.73Z"/>
  <path class="cls-8" d="m486.45,217.78s-11.61-4.35-17.91,19.49l-8.36,8.66-7.02-12.69.93-3.01-5.43-12.3-9.3,5.34,2.29,8.45-.39,4.18,2.22,2.6,3.64,13.42,2.28,4.39s2.87,5.62,7.88,6.54c1.34.25,2.7.29,4.05.11,3.21-.5,6.18-1.99,8.51-4.25,6.2-5.53,12.06-11.42,17.55-17.65l-.94-23.28Z"/>
  <polygon class="cls-7" points="502.03 257.71 502.85 261.63 503.55 276.07 475.48 272.27 473.33 255.55 476.3 250.65 502.03 257.71"/>
  <circle class="cls-7" cx="492.92" cy="192.28" r="13.28"/>
  <path class="cls-8" d="m515.18,223.34c-2.19-5.17-6.73-8.98-12.2-10.24h-.05s-2.63-3.55-2.63-3.55l-10.67,1.07-1.95,4-5.06,3.01h-.02s-2.65,1.59-2.65,1.59l-8.79,10.29h-.01c-2.61,1.75-4.38,4.5-4.89,7.59-.13.88-.18,1.78-.13,2.67.29,5.47,3.71,10.34,4.18,10.99l1.15,6.47.23,1.33,2.07.3,29.16,4.17.81.12.24.03.84-2.17v-.02l8.13-21.27,3.65-9.49c0-2.37-.47-4.72-1.41-6.89Z"/>
  <path class="cls-3" d="m506.82,195.76c-.12-.02-.24-.04-.36-.06-2.07-.37-4.14-.73-6.21-1.1l-.19-4.68-2.5,4.19c-5.71,1.89-11.05.82-16.07-1.54-1.66-.79-3.27-1.67-4.82-2.65-1.08-6.6,1.65-11.79,8.65-12.46.22-.02.37-.2.56-.3,0,0,0,0,0,0h0c.32-.15.65-.3.98-.43,5.26-2.06,11.24-.9,15.36,2.98,4.16,4.23,5.89,10.28,4.59,16.06Z"/>
  <path class="cls-10" d="m519.91,302.88c-.59-3.92-1.55-7.78-2.88-11.52h0c-1.11-3.17-2.5-6.23-4.14-9.15,0,0,0,0-.01,0h0c-2.37-4.4-5.45-8.38-9.13-11.76l-.39-.41h-.1l-28.16-.69h-.61s-.12.34-.35,1c0,.04-.02.08-.04.12-.08.26-.18.56-.3.89-.07.22-.15.45-.23.7-.09.27-.19.55-.29.85-.78,2.33-1.92,5.71-3.32,9.9-.21.64-.43,1.3-.66,1.99-5.34,16.07-13.93,42.33-21.43,67.22h26.6c2.58-7.46,5.32-18.1,5.32-18.1,1.07-1.27,1.01-4.72,1.01-4.72l8.36-8.78,6.02,31.6h25.26l.19-35.17v-.3c.2-4.57-.04-9.14-.72-13.66Z"/>
  <path class="cls-3" d="m501.73,176.82h0c0,.71.09,1.4.26,2.07.03.12.06.24.1.36h0c.76,2.44,2.62,4.38,5.02,5.24.17.07.35.12.53.17.38.11.77.19,1.16.24.35.05.71.07,1.06.07.28,0,.55-.01.83-.04.65-.07,1.28-.21,1.89-.43.1-.03.19-.06.28-.1.05-.02.09-.04.13-.06,4.15-1.74,6.11-6.51,4.37-10.66-.05-.12-.11-.25-.17-.37h0c-.4-.84-.94-1.6-1.6-2.25-1.47-1.47-2.12-5.14-4.35-5.14-.11,0-.21,0-.32.01-1.5.05-4.27,3.28-5.45,4.05-.88.55-1.63,1.27-2.23,2.12-.63.87-1.07,1.85-1.31,2.9-.14.6-.21,1.21-.21,1.82Z"/>
  <path class="cls-3" d="m511.68,173.99c1.26,1.47,3.24,2.04,5.03,2.81,6.4,2.81,11,8.59,12.29,15.45.49,2.75.43,5.61,1.21,8.29.78,2.68,2.69,5.32,5.45,5.78,1.86.32,3.73-.4,5.48-1.11.96-.39,1.93-.78,2.89-1.17-1.01-2.52-2.01-5.05-3.01-7.57,1.61,2.38,3.49,4.57,5.59,6.54,3.46-1.39,6.91-2.79,10.38-4.18-8.52.03-7.06-8.23-8.97-16.53-1.05-4.56-9.96-7.64-11.71-11.98-2.73-6.8-10.46-10.1-17.25-7.37-2.93,1.18-5.34,3.36-6.81,6.16-1.75.7-1.8,3.42-.56,4.87Z"/>
  <path class="cls-10" d="m475.51,271.36c-3.98,1.04-7.2,3.95-8.62,7.81-.5,1.09-.49,2.35.04,3.43.41.77,1.33,1.12,2.15.81.82-.44,1.48-1.14,1.87-1.99.57-1.09,1.07-2.22,1.47-3.38.67-1.75,2.09-4.68.06-6.05-1.71-1.15-3.98-.7-5.9-.78-2.08-.09-4.39-.88-5.13-3.04-.72-2.1.97-4.07,2.78-4.87,2.22-.92,4.75-.68,6.75.64,1.95,1.35,3.35,3.37,3.92,5.67.09.37-.14.75-.51.83-.35.08-.71-.12-.82-.47-.51-2.14-1.86-3.98-3.74-5.12-1.87-1.08-4.19-.99-5.97.23-.93.58-1.37,1.71-1.06,2.77.47.94,1.35,1.6,2.38,1.78,2.2.53,4.49-.16,6.68.55,2.04.52,3.34,2.52,2.99,4.59-.23,1.24-.6,2.46-1.1,3.62-.43,1.19-.93,2.36-1.5,3.49-.87,1.64-2.44,3.42-4.5,2.94-2.36-.55-2.92-3.3-2.41-5.32,1.37-4.67,5.09-8.27,9.8-9.49.37-.09.75.14.83.51.08.35-.12.71-.47.82h0Z"/>
  <path class="cls-1" d="m579.55,353.01h-164c-3.86,0-7-3.14-7-7V123.01c0-3.86,3.14-7,7-7h164c3.86,0,7,3.14,7,7v223c0,3.86-3.14,7-7,7Zm-164-235c-2.76,0-5,2.24-5,5v223c0,2.76,2.24,5,5,5h164c2.76,0,5-2.24,5-5V123.01c0-2.76-2.24-5-5-5h-164Z"/>
  <path class="cls-2" d="m605.61,34.48H140.32c-1-.02-1.79-.85-1.77-1.85.02-.97.8-1.75,1.77-1.77h465.29c1,.02,1.79.85,1.77,1.85-.02.97-.8,1.75-1.77,1.77Z"/>
  <ellipse class="cls-1" cx="171.24" cy="10.82" rx="10.59" ry="10.82"/>
  <ellipse class="cls-1" cx="207.82" cy="10.82" rx="10.59" ry="10.82"/>
  <ellipse class="cls-1" cx="244.39" cy="10.82" rx="10.59" ry="10.82"/>
  <path class="cls-1" d="m583.59,2.68h-25.98c-1.09.02-1.95.92-1.93,2.01.02,1.06.87,1.91,1.93,1.93h25.98c1.09-.02,1.95-.92,1.93-2.01-.02-1.06-.87-1.91-1.93-1.93Z"/>
  <path class="cls-1" d="m583.59,10.07h-25.98c-1.09.02-1.95.92-1.93,2.01.02,1.06.87,1.91,1.93,1.93h25.98c1.09-.02,1.95-.92,1.93-2.01-.02-1.06-.87-1.91-1.93-1.93Z"/>
  <path class="cls-1" d="m583.59,17.44h-25.98c-1.09.02-1.95.92-1.93,2.01.02,1.06.87,1.91,1.93,1.93h25.98c1.09-.02,1.95-.92,1.93-2.01-.02-1.06-.87-1.91-1.93-1.93Z"/>
  <path class="cls-4" d="m696,249.01h-53c-7.18,0-13-5.82-13-13s5.82-13,13-13h53c7.18,0,13,5.82,13,13s-5.82,13-13,13Z"/>
  <path class="cls-11" d="m315.98,303.42c-1.13.05-2.08-.82-2.13-1.94-.03-.6.21-1.18.65-1.59l.14-.56-.06-.13c-1.18-2.79-4.39-4.09-7.18-2.91-1.32.56-2.37,1.62-2.92,2.95-1.65,3.98-3.76,7.97-4.28,12.18-.23,1.86-.13,3.75.28,5.57-3.88-8.47-5.9-17.67-5.91-26.99,0-2.34.13-4.67.39-7,.21-1.9.51-3.8.89-5.67,2.08-10.19,6.55-19.73,13.03-27.86,3.14-1.71,5.68-4.35,7.28-7.55.58-1.15.99-2.38,1.21-3.65-.35.05-.71.08-1.07.1-.11,0-.23.01-.34.02h-.04c-1.12.05-2.06-.81-2.11-1.93-.02-.49.14-.98.45-1.36.15-.19.31-.38.46-.56.23-.29.47-.57.7-.87.03-.03.05-.06.08-.09.27-.33.53-.66.8-.99-.49-.76-1.14-1.39-1.92-1.85-2.68-1.57-6.37-.48-8.3,1.94-1.83,2.56-2.43,5.8-1.63,8.84.66,2.57,1.76,5.02,3.24,7.22-.15.19-.3.37-.44.55-2.65,3.41-4.97,7.08-6.9,10.94.47-4.33-.09-8.71-1.64-12.77-1.57-3.79-4.52-6.98-7.11-10.26-1.92-2.46-5.46-2.9-7.92-.98-1.18.92-1.95,2.27-2.13,3.75l-.02.14c.39.22.76.45,1.13.69,1.27.85,1.61,2.57.76,3.84-.43.64-1.11,1.08-1.88,1.2h-.06c.14,1.4.38,2.77.73,4.13,2.03,7.63,7.14,14.07,14.11,17.77.23.12.45.23.67.34-1.95,5.52-3.17,11.27-3.63,17.11-.26,3.44-.25,6.9.05,10.34l-.02-.12c-.74-3.83-2.78-7.28-5.78-9.77-4.45-3.65-10.73-5-15.52-7.93-1.48-.95-3.44-.52-4.39.96-.41.63-.57,1.39-.48,2.13l.02.13c.71.29,1.41.63,2.08,1,.39.22.76.45,1.13.69,1.27.85,1.61,2.57.76,3.84-.43.64-1.11,1.08-1.88,1.2h-.06s-.08.02-.12.03c1.22,2.92,2.94,5.6,5.07,7.94,5.32,5.71,12.77,8.98,20.58,9.03h0c1.05,4.56,2.57,8.99,4.53,13.24h16.2c.06-.18.11-.37.16-.55-1.5.09-3,0-4.48-.27,1.2-1.47,2.4-2.96,3.61-4.44.03-.03.05-.06.08-.09.61-.75,1.23-1.5,1.83-2.26h0c.03-2.31-.23-4.62-.79-6.87h0Z"/>
  <g class="cls-5">
    <path class="cls-9" d="m285.22,279.88c-2.5-2.05-2.87-5.74-.82-8.24.22-.27.46-.51.72-.74l-13.24-34.61,10.58,2.24,11.23,33.29c1.95,2.6,1.41,6.29-1.19,8.24-2.18,1.63-5.19,1.55-7.29-.18Z"/>
    <path class="cls-3" d="m290.67,241.98l-11.88-49.44-5.11-14.38s0-.01-.01-.02c-.83-2.35-2.57-4.27-4.83-5.32-2.26-1.08-4.86-1.2-7.21-.34-.2.07-.4.15-.59.24-.41.19-.81.4-1.19.64-2.2,1.39-3.74,3.63-4.23,6.19l-.9,4.72-.38,2.01,14.03,49.04v.02l4.88,17.08,2.26,7.88h0s2.62,9.18,2.62,9.18l.06.19,6.29-.42h.01l.95-.07,7.2-.48,1.04-.07-3.01-26.65Z"/>
    <path class="cls-3" d="m242.44,159.43l26.46,53.51,16.74,56.9c-35.27,6.88-79.52,21.59-82.71.49,1.96-58.83,8.15-77.59,20.91-103.09l18.59-7.82Z"/>
    <path class="cls-3" d="m277.82,318.01h-21.73l-8.81-29.77-6.2,29.39c-.02.13-.03.25-.05.38h-23.16c.75-9.2,2.12-25.2,2.77-27.47.92-3.22,0-3.22-1.84-5.06-.41-.41-.55-2.05-.51-4.34.11-7.89,2.26-23.52,2.26-23.52l2.55-4.72.88-1.64,45.42-1.6h.39s.84,3.65.84,3.65l1.03,4.51,1.81,7.91,1.67,6.31.09.32v1.87c-.28.65-.41,1.36-.38,2.07,0,.64,1.44,20.58,2.97,41.71Z"/>
    <path class="cls-4" d="m239.34,167.37l3.12-7.46,9.65.17,10.06,14.24,10.56,44.42s3.79,32.45,0,34.16-49.74.8-49.74.8c2.13-17.52,3.71-35.35,5.38-46,5.52-35.2,8.13-27.79,10.95-40.33Z"/>
    <path class="cls-3" d="m252.11,160.08s20.79,12.02,21.6,18.29,3.54,83.06,3.54,83.06l-7.35-4.75-2.01-27.98c1.4-24.87-2.02-43.4-8.97-57.3l-6.81-11.32Z"/>
    <circle class="cls-9" cx="247.2" cy="142.41" r="14.17" transform="translate(67.03 363.61) rotate(-80.78)"/>
    <path class="cls-3" d="m229.74,141.57c.63,2.87,1.77,5.61,3.37,8.07.42.84,1.06,1.56,1.84,2.09.82.52,1.89.39,2.55-.32l.34-.28c-.68-.42-1.28-.94-1.79-1.55-.51-.62-.69-1.45-.48-2.23.25-.78,1.08-1.23,1.88-1,.83.33,1.33,1.53,2.2,1.34.7-.15.85-1.08.85-1.81-.03-3.8,1.81-9.21,3.24-9.04,1.44.08,2.88-.11,4.24-.57,1.37-.45,2.81-.64,4.25-.54.1.01.2.03.31.05.23-.72.55-1.41.94-2.06-.04.78,0,1.56.11,2.34,1.14.47,2.33.85,3.54,1.12,1.31.19,4.21,4.12,4.34,3.71.23-.72.55-1.41.94-2.06-.04.78,0,1.56.11,2.34,0,.03,0,.06.01.09.64-.85,1.03-1.88.81-1.09,2.14-4.84,1.31-8.3-2.06-12.38-.66-.88-1.52-1.57-2.52-2.02-1.02-.45-2.19-.33-3.1.31-2.79-2.56-6.76-3.41-10.35-2.21-3.5,1.22-6.2,1.93-6.74,5.61-2.98-.33-5.89,1.09-7.47,3.64-1.51,2.55-2,5.57-1.39,8.47Z"/>
    <path class="cls-9" d="m190.03,276.39c-1.2-3,.26-6.41,3.26-7.61.32-.13.65-.23.99-.3l5.11-36.7,8.18,7.07-6.23,34.58c.45,3.22-1.8,6.2-5.02,6.64-2.69.38-5.3-1.14-6.29-3.68h0Z"/>
    <path class="cls-3" d="m235.13,178.42l-.39-3.56c-.37-3.29-2.43-6.14-5.44-7.52-1.14-.53-2.38-.82-3.64-.85h-.01c-3.79-.09-7.26,2.1-8.81,5.56l-6.24,13.95-15.75,48.35-5.09,26.3,5.5.81,7.97,1.17h.06s1.83.28,1.83.28l25.57-68.44v-.02s4.79-12.79,4.79-12.79l-.35-3.24Z"/>
  </g>
  <path class="cls-8" d="m330.55,319.01h-164c-3.86,0-7-3.14-7-7V89.01c0-3.86,3.14-7,7-7h164c3.86,0,7,3.14,7,7v223c0,3.86-3.14,7-7,7ZM166.55,84.01c-2.76,0-5,2.24-5,5v223c0,2.76,2.24,5,5,5h164c2.76,0,5-2.24,5-5V89.01c0-2.76-2.24-5-5-5h-164Z"/>
  <path class="cls-8" d="m66,249.01H13c-7.18,0-13-5.82-13-13s5.82-13,13-13h53c7.18,0,13,5.82,13,13s-5.82,13-13,13Z"/>
  <path class="cls-8" d="m92,300.01h-53c-7.18,0-13-5.82-13-13s5.82-13,13-13h53c7.18,0,13,5.82,13,13s-5.82,13-13,13Z"/>
  <rect class="cls-8" x="170.23" y="240.99" width="2" height="102.43" transform="translate(-123.42 459.2) rotate(-89.17)"/>
  <path class="cls-8" d="m226.74,297.53c-1.91,0-3.66-1.09-4.5-2.81h0c-1.21-2.48-.18-5.48,2.3-6.69,2.48-1.21,5.48-.18,6.69,2.3,1.21,2.48.18,5.48-2.3,6.69-.68.33-1.43.5-2.18.51Zm-.01-8c-1.66,0-3,1.35-3,3,0,.45.1.9.3,1.31h0c.73,1.49,2.52,2.1,4.01,1.38,1.49-.73,2.1-2.52,1.38-4.01-.5-1.03-1.55-1.68-2.69-1.68Z"/>
  <rect class="cls-8" x="148.23" y="187.99" width="2" height="102.43" transform="translate(-92.11 384.97) rotate(-89.17)"/>
  <path class="cls-8" d="m204.74,244.53c-1.91,0-3.66-1.09-4.5-2.81h0c-1.21-2.48-.18-5.48,2.3-6.69s5.48-.18,6.69,2.3c1.21,2.48.18,5.48-2.3,6.69-.68.33-1.43.51-2.19.51Zm-2.7-3.69c.73,1.49,2.52,2.11,4.01,1.38,1.49-.73,2.11-2.52,1.38-4.01-.73-1.49-2.52-2.11-4.01-1.38-.71.35-1.26.97-1.52,1.72-.26.75-.21,1.58.14,2.29Z"/>
  <path class="cls-8" d="m106,199.01h-53c-7.18,0-13-5.82-13-13s5.82-13,13-13h53c7.18,0,13,5.82,13,13s-5.82,13-13,13Z"/>
  <rect class="cls-8" x="188.23" y="137.99" width="2" height="102.43" transform="translate(-2.69 375.69) rotate(-89.17)"/>
  <path class="cls-8" d="m244.74,194.53c-1.91,0-3.66-1.09-4.5-2.81h0c-1.21-2.48-.18-5.48,2.3-6.69s5.48-.18,6.69,2.3c1.21,2.48.18,5.48-2.3,6.69-.68.33-1.43.51-2.19.51Zm-2.7-3.69c.73,1.49,2.52,2.11,4.01,1.38,1.49-.73,2.11-2.52,1.38-4.01-.73-1.49-2.52-2.11-4.01-1.38-.71.35-1.26.97-1.52,1.72-.26.75-.21,1.58.14,2.29Z"/>
  <rect class="cls-1" x="565.1" y="181.18" width="2" height="102.43" transform="translate(325.56 795.08) rotate(-89.17)"/>
  <path class="cls-1" d="m510.61,237.08c-2.77,0-5.01-2.23-5.02-5s2.23-5.01,5-5.02,5.01,2.23,5.02,5c0,1.92-1.09,3.67-2.81,4.51-.68.33-1.43.51-2.19.51Zm0-8c-1.66,0-3,1.34-3,3,0,1.66,1.34,3,3,3,1.66,0,3-1.34,3-3,0-.46-.1-.91-.3-1.32h0c-.5-1.03-1.55-1.69-2.7-1.69h0Z"/>
  <path class="cls-4" d="m696,352.01h-53c-7.18,0-13-5.82-13-13s5.82-13,13-13h53c7.18,0,13,5.82,13,13s-5.82,13-13,13Z"/>
  <rect class="cls-1" x="565.1" y="284.18" width="2" height="102.43" transform="translate(222.57 896.59) rotate(-89.17)"/>
  <path class="cls-1" d="m510.61,340.08c-2.76,0-5-2.23-5.01-5,0-2.76,2.23-5,5-5.01,1.91,0,3.66,1.09,4.5,2.81h0c1.21,2.49.17,5.48-2.31,6.69-.68.33-1.42.5-2.18.5Zm0-8c-1.66,0-3,1.34-3,3,0,1.66,1.34,3,3,3,1.66,0,3-1.34,3-3,0-.46-.1-.91-.3-1.32h0c-.5-1.03-1.55-1.69-2.7-1.69Z"/>
  <path class="cls-6" d="m378.97,351.89c2.53-2.03,2.94-5.74.91-8.27-.2-.25-.41-.47-.65-.69l9.52-27.73-7.02-4.52-11.07,33.02c-1.99,2.56-1.52,6.25,1.04,8.24,2.15,1.66,5.15,1.64,7.27-.05h0Z"/>
  <path class="cls-4" d="m387.1,275.37c-1.68,7.12-4.19,13.33-3.85,16.32.34,2.98-3.3,5.84-2.15,8.19,1.15,2.36-2.4,2.61-1.44,6.41.96,3.8,1.59,4.62.78,5.24-.82.62-5.15,15.15-5.15,15.15l2.54.93,7.41,2.7,17.41-28.64-.05-35.16-4.32-.14c-1.04.39-2.19.86-3.33,1.42-3.5,1.69-7.05,4.19-7.84,7.58Z"/>
  <polygon class="cls-6" points="451.22 498.45 460.28 498.45 464.59 463.52 451.22 463.52 451.22 498.45"/>
  <path class="cls-3" d="m463.29,499.26v-6.14l-2.38.15-9.69.57-2.24.14-1.71,20.56-.09,1.1h6.43l.21-1.09.93-4.98,2.41,4.98.53,1.09h17.05c2.11-.01,3.82-1.72,3.83-3.84.72-3.36-13.46-10.62-15.26-12.55Z"/>
  <polygon class="cls-6" points="345.13 488.59 353.01 493.06 373.99 464.8 362.37 458.21 345.13 488.59"/>
  <path class="cls-3" d="m355.23,495.25l3.02-5.34-2.13-1.05-8.72-4.28-2.02-1-9.93,14.54-2.33,3.41,2.64,1.5,2.95,1.68,4-4.72-.44,6.73,13.92,7.91h0l.9.51c1.84,1.04,4.18.39,5.22-1.45,2.28-2.57-6.46-15.88-7.08-18.45Z"/>
  <path class="cls-3" d="m406.28,326.99c-12.14,8.04-24.15,85.3-21,84.04l-28.6,53.3,14.62,9.88,52.86-84.58,17.57,37.42,7.26,57.43,18.2-1.3c-4.73-64.7-16.54-132.94-26.32-159.34l-34.59,3.14Z"/>
  <path class="cls-4" d="m397.07,332.72l-.13.5c12.83,7.14,47.94-1.13,47.94-1.13l-5.66-18.24,7.64-40.51c-.04-6.54-5.38-11.81-11.92-11.77-.27,0-.54.01-.81.03l-9.22-6.83-13.12.45-8.78,9.7-5.24,1.87-4.08,1.45c-.82.74-1.72,1.6-2.58,2.54l6.45,38.36,2.74,11.47-3.23,12.1Z"/>
  <circle class="cls-6" cx="418.37" cy="236.42" r="16.84"/>
  <path class="cls-3" d="m396.23,230.55c.05.02.09.04.14.06.1.04.19.08.3.11.64.24,1.31.39,1.99.46.29.03.58.05.87.05.37,0,.75-.02,1.12-.07.41-.05.82-.13,1.22-.25.19-.05.38-.11.56-.18,2.53-.9,4.5-2.94,5.31-5.5h0c.04-.13.08-.26.11-.38.19-.71.28-1.44.28-2.17h0c0-1.8-.55-3.54-1.59-4.99-.63-.89-1.35-1.04-.94-2.05,1.3-3.24-4-5.89-7.13-4.46-.11-.01-.23-.02-.34-.01-2.11,0-2.89,3.11-4.14,4.86h.04c.84.31,1.29,1.23.99,2.07-.17.47-.54.84-1.01,1-.84.27-1.68.51-2.53.72-2.81,3.32.41,13.05,4.76,10.76Z"/>
  <path class="cls-3" d="m397.78,239.47c.8,3.6,2.72,6.86,5.49,9.3,2.85,2.3,16.25,7.76,17.38,3.09-.76,3.26-.3,4.51.92,5.67.21-.28.43-.55.66-.82.84-.96,1.84-1.77,2.96-2.38.03,1.97-.11,3.94-.42,5.89.5.46.98.95,1.43,1.46,2.17-6.46,6.92-14.2,3.48-20.08-1.36-2.33-.23-2.65.98-2.92,2.11-.47,3.27-9.13,3.78-11.23.62-2.64.87-5.68-.77-7.84s-5.77-2.26-6.61.32l-1.74-2.37c-2.25-4.95-8.23-3.96-13.63-3.32-5.48.83-10.2,4.31-12.61,9.3-2.32,4.98-2.78,10.63-1.29,15.93Z"/>
  <path class="cls-12" d="m406.3,216.83c.23,6.11-3.2,11.77-8.73,14.38-1.1.5-2.05-1.13-.95-1.63,4.94-2.28,8.02-7.31,7.79-12.75-.06-1.21,1.82-1.2,1.89,0h0Z"/>
  <path class="cls-6" d="m482.35,226.15c-3.13.87-4.96,4.11-4.1,7.24.08.3.19.6.32.89l-19.7,21.72,4.67,6.92,23.2-25.97c2.84-1.57,3.87-5.15,2.3-7.98-1.31-2.38-4.09-3.54-6.7-2.82h0Z"/>
  <path class="cls-4" d="m426.37,296.62s13.97,2.51,18.32-3.37,9.11-10.6,9.98-13.47,5.34-4.06,5.2-6.68,3.23-1.45,3.85-5.32.36-4.87,1.36-5.12,10.7-11.88,10.7-11.88l-7.71-7.27-27.3,19.45-14.41,33.68Z"/>
  <path class="cls-11" d="m321.31,508.31c-10.96-1.31-20.75-7.49-26.63-16.83-3.78-6.13-5.73-13.41-7.62-20.45-.55-2.05-1.12-4.17-1.72-6.21-1.39-4.57.14-9.52,3.86-12.51,3.6-3.01,8.66-3.54,12.8-1.32l.44.23.77,17.38c1.15-2.33,3.66-7.59,5.65-12.84l.17-.44.38.28c4,2.88,7.63,6.25,10.79,10.03,11.3,13.74,15.99,31.76,12.81,49.27l-.1.52-11.62-7.11Z"/>
  <path class="cls-10" d="m250.44,515.25c0,.66.53,1.19,1.18,1.19h290.3c.66,0,1.19-.53,1.19-1.19s-.53-1.19-1.19-1.19H251.63c-.66,0-1.19.53-1.19,1.18h0Z"/>
</svg>