<svg width="1758" height="519" viewBox="0 0 1758 519" fill="none" xmlns="http://www.w3.org/2000/svg">
<path d="M728.45 173.1L737.2 170.3C745.133 170.3 749.1 180.8 749.1 201.8L759.95 282.65L761.35 284.05L801.6 269.35C806.967 269.35 809.883 273.433 810.35 281.6C810.35 287.667 795.533 295.017 765.9 303.65L764.5 304.35V305.75C764.5 310.65 772.2 336.2 787.6 382.4V383.1C787.6 387.533 783.983 391.267 776.75 394.3C769.983 394.3 765.55 386.25 763.45 370.15C758.083 358.483 751.55 339.233 743.85 312.4H742.45C711.883 318.7 696.6 324.067 696.6 328.5C679.8 364.9 667.083 383.1 658.45 383.1C653.55 383.1 650.633 379.95 649.7 373.65C649.7 368.05 655.883 357.083 668.25 340.75L673.85 328.5H665.1L658.45 329.9C649.817 327.8 645.5 323.367 645.5 316.6C649 308.433 654.133 304.35 660.9 304.35L669.65 307.85C682.717 307.85 689.25 303.067 689.25 293.5C701.15 265.5 714.217 225.367 728.45 173.1ZM731.6 236.8L710.95 299.1C730.083 295.367 739.65 291.75 739.65 288.25C736.15 253.95 733.467 236.8 731.6 236.8ZM856.438 262.35L870.788 260.25C876.621 260.25 879.888 263.867 880.588 271.1C880.588 277.4 873.005 281.483 857.838 283.35C848.271 290.817 843.488 300.383 843.488 312.05V323.6C848.155 349.267 856.088 362.1 867.288 362.1H870.788C877.321 362.1 887.121 355.917 900.188 343.55H902.288C906.955 343.55 910.688 346.817 913.488 353.35C910.221 363.383 899.721 372.483 881.988 380.65C878.721 382.05 874.638 382.75 869.738 382.75C845.705 382.75 830.071 363.85 822.838 326.05V318.35C822.838 291.05 834.038 272.383 856.438 262.35ZM987.138 249.05C1004.4 249.05 1017.47 261.883 1026.34 287.55L1027.74 294.9C1027.74 319.867 1016.07 345.417 992.738 371.55C983.405 380.183 973.955 384.5 964.388 384.5C950.388 384.5 940.472 376.45 934.638 360.35C932.538 352.883 931.488 346.35 931.488 340.75V336.55C931.488 299.683 944.905 271.683 971.738 252.55C976.405 250.217 981.538 249.05 987.138 249.05ZM952.138 340.05C952.138 355.917 956.222 363.85 964.388 363.85C981.422 363.85 995.538 342.033 1006.74 298.4V291.75C1002.77 277.283 995.422 270.05 984.688 270.05C980.488 270.05 978.388 272.967 978.388 278.8C978.388 282.767 973.722 285.917 964.388 288.25C956.222 302.017 952.138 319.283 952.138 340.05ZM1063.2 188.15C1069.73 190.483 1073 194.1 1073 199L1076.5 332.35V375.4C1076.5 383.333 1073.11 387.3 1066.35 387.3H1061.8C1057.6 384.5 1055.5 381.233 1055.5 377.5V336.9L1052.35 198.3C1052.35 192.467 1055.96 189.083 1063.2 188.15ZM1116.39 187.8C1122.93 187.8 1126.19 195.733 1126.19 211.6L1130.39 271.8H1131.79L1149.29 265.15C1168.89 265.15 1180.79 285.217 1184.99 325.35C1186.63 336.783 1187.44 353.583 1187.44 375.75V404.1C1187.44 412.967 1184.18 417.4 1177.64 417.4H1176.24C1169.94 416.467 1166.79 413.083 1166.79 407.25V374.35C1166.79 321.617 1161.66 292.45 1151.39 286.85H1149.29C1142.29 286.85 1137.16 297.583 1133.89 319.05V338.65C1133.89 373.65 1130.98 391.15 1125.14 391.15L1118.49 391.85C1111.96 391.85 1108.69 382.167 1108.69 362.8C1109.39 342.267 1110.79 325.467 1112.89 312.4L1105.54 197.25C1105.54 191.183 1109.16 188.033 1116.39 187.8ZM1235.39 255.35C1244.73 255.583 1260.48 271.917 1282.64 304.35L1283.34 310.3C1283.34 316.833 1267.36 321.85 1235.39 325.35L1234.34 326.4V327.8C1239.24 348.8 1244.38 359.3 1249.74 359.3H1253.94C1261.41 359.3 1272.73 351.25 1287.89 335.15H1289.99C1294.66 335.15 1298.28 338.533 1300.84 345.3C1300.84 350.9 1291.04 360.583 1271.44 374.35C1266.31 377.383 1260.13 379.6 1252.89 381C1233.99 381 1220.81 363.267 1213.34 327.8C1202.61 326.167 1197.24 321.733 1197.24 314.5C1197.24 309.367 1201.21 305.983 1209.14 304.35V305.75L1212.64 304.35V295.6C1212.64 268.767 1220.23 255.35 1235.39 255.35ZM1237.49 280.55H1234.34L1232.94 293.5V304.35H1234.34C1247.41 303.883 1253.94 302.483 1253.94 300.15C1247.88 291.05 1242.39 284.517 1237.49 280.55ZM1360.49 243.1C1375.19 243.1 1383.94 253.367 1386.74 273.9V277.05C1386.74 299.683 1375.08 320.45 1351.74 339.35C1365.28 352.65 1388.96 359.3 1422.79 359.3C1427.93 360.933 1430.49 364.55 1430.49 370.15C1430.49 376.45 1426.41 379.6 1418.24 379.6C1395.38 379.6 1371.34 373.767 1346.14 362.1V372.25C1346.14 396.283 1341.01 408.3 1330.74 408.3C1323.51 408.3 1319.89 394.417 1319.89 366.65V339.35L1318.84 329.55L1321.29 318.35L1318.84 284.75V283.35C1318.84 277.05 1322.11 272.733 1328.64 270.4C1337.74 252.2 1348.36 243.1 1360.49 243.1ZM1342.99 319.75C1349.76 319.75 1357.34 307.617 1365.74 283.35V268.3L1361.54 263.75H1358.39C1348.13 270.75 1342.99 289.417 1342.99 319.75Z" fill="#1F3964"/>
<path d="M1504.9 327.85L1508.65 327.25H1510.15C1512.15 327.25 1514.35 328.5 1516.75 331C1521.15 331 1527.4 336.5 1535.5 347.5C1542.4 360.5 1545.85 372.05 1545.85 382.15C1545.85 395.95 1540.85 405.15 1530.85 409.75L1521.4 411.7C1506.4 411.7 1495.6 400.45 1489 377.95C1487.5 372.05 1486.75 366.3 1486.75 360.7V359.2C1486.75 342.3 1492.8 331.85 1504.9 327.85ZM1503.55 342.25L1500.25 340.9C1497.15 344.6 1495.6 349.95 1495.6 356.95V361C1495.6 379.5 1501.85 392.95 1514.35 401.35L1518.55 402.25H1524.25C1529.45 402.25 1533.2 399 1535.5 392.5L1536.4 385.9V381.25C1536.4 366.25 1530.45 352.8 1518.55 340.9L1512.4 339.1H1512.1C1510.1 339.1 1507.25 340.15 1503.55 342.25ZM1563.31 326.2C1568.01 327.7 1576.96 345.95 1590.16 380.95L1592.41 383.65V375.25C1592.41 352.95 1597.91 337.2 1608.91 328C1611.41 328 1612.96 329.7 1613.56 333.1C1606.06 344.3 1602.31 353.35 1602.31 360.25C1601.81 360.25 1601.51 363.4 1601.41 369.7V377.65C1601.41 384.55 1602.16 394.4 1603.66 407.2C1602.76 409.7 1601.16 410.95 1598.86 410.95C1596.56 410.95 1593.31 406.25 1589.11 396.85C1584.01 388.75 1578.41 376.45 1572.31 359.95H1571.71V360.85L1572.61 379.9C1572.61 399.6 1568.86 412.3 1561.36 418L1557.61 418.45C1554.51 418.45 1551.91 415.6 1549.81 409.9C1550.51 406.8 1552.06 405.25 1554.46 405.25H1555.36L1558.21 407.65H1558.66C1562.16 402.95 1563.91 394.05 1563.91 380.95C1563.91 367.75 1562.01 351.05 1558.21 330.85C1558.21 328.15 1559.91 326.6 1563.31 326.2ZM1661.21 296.35C1662.81 296.35 1664.26 297.9 1665.56 301C1665.56 303.4 1661.91 305.4 1654.61 307C1645.41 312.1 1638.26 321 1633.16 333.7C1628.16 346.4 1625.66 358.95 1625.66 371.35C1625.66 391.25 1632.06 404.05 1644.86 409.75L1649.66 410.65C1660.36 410.65 1667.96 401.3 1672.46 382.6L1673.06 376.45C1673.06 368.45 1670.36 361.75 1664.96 356.35H1664.06C1661.96 358.75 1657.76 367.2 1651.46 381.7L1648.16 383.95C1645.36 383.95 1643.76 382.25 1643.36 378.85C1652.86 356.35 1659.31 345.1 1662.71 345.1H1663.61C1675.81 352.2 1681.91 362.65 1681.91 376.45C1681.91 392.05 1675.51 405.05 1662.71 415.45C1660.61 417.25 1656.36 418.6 1649.96 419.5C1637.86 419.5 1627.86 410.75 1619.96 393.25C1617.86 385.75 1616.81 378.9 1616.81 372.7V370.45C1616.81 349.05 1623.66 328.85 1637.36 309.85C1646.26 300.85 1654.21 296.35 1661.21 296.35Z" fill="#1F3964"/>
<path d="M130 108C172.72 86.3185 204.716 91.714 212.457 93.5285C213.649 93.8078 214.657 94.5145 215.431 95.4623C220.867 102.114 244.284 129.365 266.259 133.5C294.7 138.851 331.029 107.416 341.988 97.1572C343.956 95.3141 346.888 94.9087 349.21 96.2803C356.509 100.591 372.183 110.328 381.259 119.5C403.187 141.659 413.388 160.008 416.759 191C429.335 247.772 405.502 272.784 391.095 282.364C387.12 285.007 382.713 281.349 383.505 276.641C387.078 255.4 390.659 208.888 358.152 191.211C357.895 191.072 357.633 190.907 357.398 190.735C313.243 158.546 272.04 186.419 251.603 207.153C248.328 210.475 242.363 209.453 240.174 205.334C227.405 181.306 196.71 149.721 159.5 153.5C123.667 157.139 100.802 179.522 76.9839 202.337C72.7844 206.36 66.6195 202.74 68.37 197.194C76.4421 171.621 95.2572 125.633 130 108Z" fill="#E92453" stroke="black" stroke-width="3"/>
<path d="M524 420.5C524 452.778 497.392 479 464.5 479C431.608 479 405 452.778 405 420.5C405 388.222 431.608 362 464.5 362C497.392 362 524 388.222 524 420.5Z" fill="white" stroke="black" stroke-width="4"/>
<path d="M336.5 60.5C336.5 93.0617 309.66 119.5 276.5 119.5C243.34 119.5 216.5 93.0617 216.5 60.5C216.5 27.9383 243.34 1.5 276.5 1.5C309.66 1.5 336.5 27.9383 336.5 60.5Z" fill="#E92755" stroke="black" stroke-width="3"/>
<path d="M121.5 396.5C121.5 429.062 94.6604 455.5 61.5 455.5C28.3396 455.5 1.5 429.062 1.5 396.5C1.5 363.938 28.3396 337.5 61.5 337.5C94.6604 337.5 121.5 363.938 121.5 396.5Z" fill="#1F3964" stroke="black" stroke-width="3"/>
<path d="M168.558 174.501C195.458 174.62 214.694 183.34 228.02 199.947C231.542 204.336 226.693 209.835 221.301 208.226C161.467 190.379 124.5 228.767 124.5 285C124.5 336.346 170.2 365.728 184.665 373.742C187.158 375.123 188.56 377.987 188.264 380.822C187.215 390.859 187.139 415.137 205.5 440C223.108 463.844 262.514 484.996 282.257 494.573C286.858 496.804 286.873 503.234 282.089 505.04C261.641 512.76 218.486 524.979 181.5 508.5C159.07 496.399 131.998 452.587 125.804 442.213C124.957 440.795 124.767 439.112 125.196 437.517C128.145 426.558 138.81 382.003 124.5 358C111.116 335.55 71.5106 323.745 57.4891 320.181C54.6209 319.452 52.6183 316.838 52.8584 313.888C53.8441 301.779 57.171 270.947 66.5 252C87.7093 208.924 127.146 182.269 167.457 174.602C167.819 174.533 168.19 174.5 168.558 174.501Z" fill="#1F3964" stroke="black" stroke-width="3"/>
<path d="M302.951 411.506C266.955 405.527 235.662 395.126 218.077 388.539C212.857 386.584 207.877 391.958 210.66 396.788C224.573 420.937 256.134 467.86 294.5 474.5C330.276 485.435 374.2 466.269 387.204 459.93C389.5 458.81 390.727 456.332 390.404 453.798C388.671 440.217 384.717 397.103 400.711 374.896C400.903 374.63 401.072 374.355 401.227 374.066C411.788 354.336 450.347 343.175 458.838 340.925C459.94 340.633 460.905 340.084 461.657 339.228C467.338 332.769 492 302.127 492 257C492 213.652 483.331 186.198 454.019 160.207C449.434 156.141 442.049 161.626 443.571 167.562C449.131 189.256 453.424 224.405 436.5 257C410.103 307.838 391.831 308.334 372.338 320.637C371.458 321.193 370.753 321.986 370.279 322.913C357.219 348.441 342.004 375.026 308.166 409.789C306.817 411.175 304.859 411.823 302.951 411.506Z" stroke="black" stroke-width="4"/>
</svg>
